{
  "asset": {
    "version": "2.0",
    "generator": "THREE.GLTFExporter"
  },
  "scenes": [
    {
      "nodes": [
        0
      ]
    }
  ],
  "scene": 0,
  "nodes": [
    {
      "children": [
        7
      ],
      "matrix": [
        0.01,
        0,
        0,
        0,
        0,
        0.01,
        0,
        0,
        0,
        0,
        0.01,
        0,
        0,
        0,
        0,
        1
      ]
    },
    {
      "matrix": [
        -2.0272333214753115,
        3.6459860864132534e-16,
        3.8191564260290916e-32,
        0,
        3.645986086413228e-16,
        2.0272333214752907,
        2.4826447982695784e-16,
        0,
        9.547891065072724e-33,
        1.7094160942379559e-16,
        -1.3958441694602184,
        0,
        18.199400892569077,
        -95.5745713514745,
        16.79560223037736,
        1.0000000000000004
      ],
      "name": "Cylinder",
      "mesh": 0
    },
    {
      "matrix": [
        -1.5492338994628085,
        1.8972643361077025e-16,
        8.599975728567131e-17,
        0,
        1.8972643361076904e-16,
        1.5492338994628008,
        1.8972643361076909e-16,
        0,
        -8.59997572856712e-17,
        1.8972643361077007e-16,
        -1.549233899462808,
        0,
        23.997502797975674,
        -11.389786530283114,
        3.543874717272399,
        1
      ],
      "name": "hand-3",
      "mesh": 1
    },
    {
      "matrix": [
        0.5583093389030899,
        -9.695920014050482e-19,
        0.026369793113849148,
        0,
        0.010634039893639287,
        0.5114688276363873,
        -0.2251471506527952,
        0,
        -0.024130544635538046,
        0.225398141632827,
        0.5108992840661775,
        0,
        -0.0714534575343464,
        -64.02984976386983,
        -144.2530702581886,
        1
      ],
      "name": "Hand-03",
      "children": [
        1,
        2
      ]
    },
    {
      "matrix": [
        0.5883484054145521,
        0.39223227027636803,
        -0.7071067811865475,
        0,
        -0.554700196225229,
        0.8320502943378437,
        0,
        0,
        0.588348405414552,
        0.392232270276368,
        0.7071067811865476,
        0,
        0,
        0,
        0,
        1
      ],
      "name": "Directional Light",
      "extensions": {
        "KHR_lights_punctual": {
          "light": 0
        }
      }
    },
    {
      "matrix": [
        1,
        0,
        0,
        0,
        0,
        1,
        -6.128431095930855e-17,
        0,
        0,
        6.128431095930855e-17,
        1,
        0,
        19.93534927421169,
        0.6441195685495187,
        934.2827638822911,
        1
      ],
      "camera": 0
    },
    {
      "matrix": [
        1,
        0,
        0,
        0,
        0,
        1,
        0,
        0,
        0,
        0,
        1,
        0,
        0,
        1,
        0,
        1
      ],
      "name": "Default Ambient Light"
    },
    {
      "name": "Scene 1",
      "children": [
        3,
        4,
        5,
        6
      ]
    }
  ],
  "bufferViews": [
    {
      "buffer": 0,
      "byteOffset": 0,
      "byteLength": 4536,
      "target": 34962,
      "byteStride": 12
    },
    {
      "buffer": 0,
      "byteOffset": 4536,
      "byteLength": 4536,
      "target": 34962,
      "byteStride": 12
    },
    {
      "buffer": 0,
      "byteOffset": 9072,
      "byteLength": 3024,
      "target": 34962,
      "byteStride": 8
    },
    {
      "buffer": 0,
      "byteOffset": 12096,
      "byteLength": 3900,
      "target": 34963
    },
    {
      "buffer": 0,
      "byteOffset": 15996,
      "byteLength": 79872,
      "target": 34962,
      "byteStride": 12
    },
    {
      "buffer": 0,
      "byteOffset": 95868,
      "byteLength": 79872,
      "target": 34962,
      "byteStride": 12
    },
    {
      "buffer": 0,
      "byteOffset": 175740,
      "byteLength": 39936,
      "target": 34963
    }
  ],
  "buffers": [
    {
      "byteLength": 215676,
      "uri": "data:application/octet-stream;base64,"
    }
  ],
  "accessors": [
    {
      "bufferView": 0,
      "componentType": 5126,
      "count": 378,
      "max": [
        31.76668357849121,
        15,
        32
      ],
      "min": [
        -31.76668357849121,
        -15,
        -32
      ],
      "type": "VEC3"
    },
    {
      "bufferView": 1,
      "componentType": 5126,
      "count": 378,
      "max": [
        0.9927088618278503,
        1,
        1
      ],
      "min": [
        -0.9927088618278503,
        -1,
        -1
      ],
      "type": "VEC3"
    },
    {
      "bufferView": 2,
      "componentType": 5126,
      "count": 378,
      "max": [
        1,
        1
      ],
      "min": [
        0,
        0
      ],
      "type": "VEC2"
    },
    {
      "bufferView": 3,
      "componentType": 5123,
      "count": 1950,
      "max": [
        376
      ],
      "min": [
        0
      ],
      "type": "SCALAR"
    },
    {
      "bufferView": 4,
      "componentType": 5126,
      "count": 6656,
      "max": [
        89.103515625,
        115.17442321777344,
        48.53807830810547
      ],
      "min": [
        -55.167266845703125,
        -43.52400207519531,
        -34.76947784423828
      ],
      "type": "VEC3"
    },
    {
      "bufferView": 5,
      "componentType": 5126,
      "count": 6656,
      "max": [
        0.9999611377716064,
        0.9987497329711914,
        0.9998108744621277
      ],
      "min": [
        -0.9999807476997375,
        -0.9998329877853394,
        -0.9998897910118103
      ],
      "type": "VEC3"
    },
    {
      "bufferView": 6,
      "componentType": 5125,
      "count": 9984,
      "max": [
        6655
      ],
      "min": [
        0
      ],
      "type": "SCALAR"
    }
  ],
  "materials": [
    {
      "pbrMetallicRoughness": {
        "baseColorFactor": [
          0.5583403896257965,
          0.5987351177773638,
          0.6866853124288862,
          1
        ],
        "metallicFactor": 0,
        "roughnessFactor": 0.3
      },
      "doubleSided": false
    },
    {
      "pbrMetallicRoughness": {
        "baseColorFactor": [
          0.4594012703356989,
          0.2368137322112617,
          0.1336850438319813,
          1
        ],
        "metallicFactor": 0,
        "roughnessFactor": 0.997
      },
      "doubleSided": false
    }
  ],
  "meshes": [
    {
      "primitives": [
        {
          "mode": 4,
          "attributes": {
            "POSITION": 0,
            "NORMAL": 1,
            "TEXCOORD_0": 2
          },
          "extras": {
            "parameters": {
              "width": 64,
              "radialSegments": 26,
              "heightSegments": 1,
              "openEnded": false,
              "thetaStart": 0,
              "thetaLength": 360,
              "cornerRadius": 4,
              "cornerSegments": 3,
              "hollow": 0,
              "height": 30,
              "depth": 64,
              "radiusTop": 32,
              "radiusBottom": 32,
              "type": "CylinderGeometry"
            },
            "type": "CylinderGeometry"
          },
          "indices": 3,
          "material": 0
        }
      ]
    },
    {
      "primitives": [
        {
          "mode": 4,
          "attributes": {
            "POSITION": 4,
            "NORMAL": 5
          },
          "extras": {
            "type": "SubdivGeometry",
            "parameters": {
              "width": 147.30575942993164,
              "height": 160.93501663208008,
              "depth": 90.03390121459961
            }
          },
          "indices": 6,
          "material": 1
        }
      ]
    }
  ],
  "extensions": {
    "KHR_lights_punctual": {
      "lights": [
        {
          "name": "Directional Light",
          "color": [
            1,
            1,
            1
          ],
          "intensity": 0.7,
          "type": "directional"
        }
      ]
    }
  },
  "cameras": [
    {
      "type": "orthographic",
      "orthographic": {
        "xmag": 3.8026944171512556,
        "ymag": 2.284257410302664,
        "zfar": 100000,
        "znear": 0
      }
    }
  ],
  "extensionsUsed": [
    "KHR_lights_punctual"
  ]
}